<svg xmlns="http://www.w3.org/2000/svg" xmlns:svg="http://www.w3.org/2000/svg" id="svg2" width="48" height="48" version="1.0"><metadata id="metadata7"/><g id="layer1"><circle style="fill:#000;fill-opacity:1;stroke:#fff;stroke-width:4;stroke-linecap:round;stroke-linejoin:round;stroke-miterlimit:4;stroke-dasharray:none;stroke-opacity:1" id="path1307" cx="24" cy="24" r="22"/><path style="fill:none;fill-opacity:.75;fill-rule:evenodd;stroke:#fff;stroke-width:6;stroke-linecap:round;stroke-linejoin:miter;stroke-miterlimit:4;stroke-dasharray:none;stroke-opacity:1" id="path2186" d="M 16.221825,16.221825 L 31.778175,31.778175"/><path id="path3936" d="M 31.778175,16.221825 L 16.221825,31.778175" style="fill:none;fill-opacity:.75;fill-rule:evenodd;stroke:#fff;stroke-width:6;stroke-linecap:round;stroke-linejoin:miter;stroke-miterlimit:4;stroke-dasharray:none;stroke-opacity:1"/><rect style="fill:none;fill-opacity:1;stroke:none;stroke-width:6;stroke-linecap:round;stroke-linejoin:round;stroke-miterlimit:4;stroke-dasharray:none;stroke-opacity:1" id="rect3938" width="48" height="48" x="0" y="0"/><path style="fill:#fd9c3c;stroke:none;stroke-width:.0629096;fill-opacity:1" id="path70" d="M 22.710354,43.935524 C 18.683348,43.618687 15.174323,42.309044 12.015728,39.94406 8.2590893,37.131293 5.6640576,33.163761 4.5641298,28.551347 4.1749763,26.919479 4.0937288,26.14279 4.0913153,24.031455 4.0893643,22.324743 4.1055441,22.004961 4.2377325,21.137615 5.03701,15.893207 7.7884829,11.241201 11.94772,8.1020874 c 2.888312,-2.1799045 5.984883,-3.4412965 9.648125,-3.9301753 1.115618,-0.1488853 3.697191,-0.1480044 4.826174,0.00165 5.509448,0.7302987 10.271606,3.4962678 13.557012,7.8742179 1.984564,2.644522 3.259788,5.702117 3.777956,9.058383 0.192887,1.249359 0.239976,3.728131 0.09501,5.001311 -0.530578,4.659855 -2.518836,8.792986 -5.798326,12.053385 -3.156284,3.13791 -7.120066,5.066184 -11.631651,5.658488 -0.723393,0.09497 -3.054018,0.167922 -3.711665,0.11618 z m -5.763257,-9.213251 c 0.760131,-0.175238 0.800193,-0.209302 4.017517,-3.416042 l 3.035387,-3.025401 3.035386,3.025401 c 2.582802,2.574305 3.088025,3.04978 3.388422,3.188901 0.473281,0.219189 0.811335,0.290484 1.386079,0.292321 1.158099,0.0037 2.150019,-0.612066 2.665239,-1.654543 0.43799,-0.886212 0.43869,-1.831363 0.002,-2.716133 -0.199189,-0.403585 -0.467117,-0.68989 -3.207712,-3.427721 l -2.990371,-2.987353 3.039712,-3.051965 c 2.762182,-2.773317 3.055004,-3.087026 3.207195,-3.435973 0.897097,-2.056888 -0.524548,-4.308226 -2.716076,-4.301217 -0.574744,0.0018 -0.912798,0.07313 -1.386079,0.292321 -0.300397,0.139121 -0.80562,0.614596 -3.388422,3.188901 L 23.999988,19.719171 20.964601,16.69377 C 18.381799,14.119465 17.876576,13.64399 17.576179,13.504869 17.102898,13.28568 16.764844,13.214385 16.1901,13.212548 c -1.147881,-0.0037 -2.14466,0.612051 -2.660693,1.64354 -0.439854,0.879216 -0.442176,1.844513 -0.0066,2.727136 0.199189,0.403585 0.467117,0.68989 3.207712,3.427721 l 2.990371,2.987353 -3.039712,3.051965 c -3.37474,3.388344 -3.291434,3.284544 -3.448896,4.297378 -0.224002,1.440839 0.66912,2.870876 2.073417,3.319885 0.40299,0.128851 1.204009,0.155569 1.641344,0.05475 z"/><path style="fill:#000;fill-opacity:1;stroke-width:.0629096" id="path1189" d="m 15.280321,34.580697 c -0.922001,-0.334317 -1.566374,-0.99531 -1.882085,-1.930631 -0.115762,-0.342953 -0.133438,-0.506873 -0.109581,-1.016216 0.02523,-0.538701 0.05485,-0.662912 0.262223,-1.099574 0.226429,-0.476797 0.328513,-0.587234 3.247521,-3.513273 l 3.013743,-3.021002 -3.03713,-3.051115 c -2.931568,-2.945066 -3.044389,-3.067221 -3.245973,-3.514541 -0.169522,-0.376173 -0.214799,-0.56788 -0.240475,-1.018208 -0.04987,-0.874563 0.180722,-1.542908 0.74554,-2.160909 0.381802,-0.417753 0.779838,-0.67713 1.315831,-0.85745 0.341592,-0.11492 0.508043,-0.132926 1.011049,-0.109372 0.51216,0.02398 0.671969,0.05967 1.069463,0.238836 0.452361,0.203895 0.565036,0.307908 3.51887,3.248355 l 3.051545,3.037715 3.019228,-3.014356 c 2.931124,-2.926393 3.033634,-3.021177 3.512843,-3.248106 0.437546,-0.2072 0.562595,-0.236981 1.100917,-0.262195 0.508588,-0.02382 0.673772,-0.0061 1.016216,0.109123 1.010601,0.33999 1.760923,1.144766 2.017566,2.16399 0.04543,0.180428 0.06274,0.522297 0.04351,0.859515 -0.02717,0.476513 -0.06647,0.632886 -0.263834,1.049663 -0.22455,0.474194 -0.327571,0.585552 -3.246265,3.508965 l -3.014356,3.019228 3.037715,3.051545 c 2.940447,2.953834 3.044459,3.066508 3.248355,3.51887 0.179164,0.397494 0.214853,0.557303 0.238836,1.069463 0.02355,0.503006 0.0055,0.669457 -0.109372,1.011049 -0.33999,1.010601 -1.144766,1.760923 -2.16399,2.017566 -0.179584,0.04522 -0.521813,0.06277 -0.854369,0.0438 -0.450327,-0.02568 -0.642035,-0.07095 -1.018208,-0.240475 -0.44732,-0.201585 -0.569475,-0.314405 -3.514541,-3.245973 l -3.051114,-3.03713 -3.021003,3.013743 c -2.929409,2.92237 -3.035978,3.020855 -3.514965,3.248325 -0.449885,0.213649 -0.550812,0.236674 -1.131029,0.258027 -0.551307,0.02029 -0.693015,0.0032 -1.052683,-0.127257 z"/><path style="fill:#ff7900;fill-opacity:1;stroke-width:.0629096" id="path1393" d="M 21.782842,43.811697 C 20.30782,43.633006 18.437587,43.185271 17.069055,42.683211 15.370151,42.059953 13.020989,40.71167 11.480584,39.475754 8.1375347,36.793519 5.7543144,33.064315 4.6861782,28.844037 4.2162138,26.987176 4.198917,26.8363 4.1678299,24.322591 4.1375092,21.870844 4.1746563,21.38578 4.5080965,19.879424 5.3825386,15.929027 7.307541,12.457793 10.15038,9.705053 13.464395,6.4960702 17.817627,4.5082423 22.332897,4.1421183 c 1.200292,-0.097327 3.523932,-0.029161 4.560944,0.133798 3.552839,0.558304 6.746564,1.9508538 9.537232,4.1584892 0.83011,0.656682 2.451796,2.2820495 3.133841,3.1409555 4.856074,6.115306 5.720638,14.390214 2.230389,21.347491 -1.00296,1.999246 -2.077727,3.477705 -3.735014,5.13792 -1.402458,1.404935 -2.766451,2.446275 -4.419502,3.374065 -2.348699,1.31823 -5.39071,2.230493 -8.049307,2.413892 -1.179508,0.08137 -2.975444,0.0639 -3.808638,-0.03703 z M 17.425951,34.59317 c 0.478602,-0.223939 1.146206,-0.842817 4.055424,-3.759434 l 2.514141,-2.520534 3.021901,3.007169 c 3.628599,3.610909 3.388465,3.437166 4.750592,3.437166 0.831158,0 0.860587,-0.0047 1.287399,-0.206841 0.567782,-0.268866 0.909309,-0.554161 1.219554,-1.018757 0.733817,-1.098899 0.724701,-2.525428 -0.02243,-3.509405 -0.15062,-0.19837 -1.54858,-1.63359 -3.106577,-3.189377 l -2.832723,-2.828704 3.007153,-3.021885 c 2.678498,-2.691622 3.028881,-3.066576 3.205972,-3.430798 0.728261,-1.497811 0.08139,-3.35952 -1.415684,-4.074351 l -0.492065,-0.234955 h -0.850602 c -1.362058,0 -1.122281,-0.173455 -4.748469,3.435052 l -3.019779,3.005056 -3.019539,-3.005101 c -3.625853,-3.608513 -3.386014,-3.435007 -4.74823,-3.435007 H 15.38139 l -0.492065,0.234955 c -1.575604,0.75233 -2.183025,2.719272 -1.316502,4.263079 0.09585,0.170773 1.340692,1.46917 3.137499,3.272486 l 2.978603,2.989391 -2.458575,2.452286 c -2.777335,2.770231 -3.582847,3.629613 -3.795573,4.049408 -0.08122,0.160274 -0.181002,0.511317 -0.221744,0.780095 -0.226418,1.493682 0.610696,2.885585 2.041716,3.394847 0.250181,0.08903 0.471414,0.108493 1.070284,0.09414 0.656819,-0.01574 0.799875,-0.03913 1.100918,-0.179984 z"/></g></svg>